<svg width="92" height="92" fill="none" xmlns="http://www.w3.org/2000/svg"><circle cx="46" cy="46" r="46" fill="#E9E9EC"/><path d="M33.756 57.356l20.58 8.6V45.008l-20.58-7.644v19.992zm36.383-10.952l-5.733 2.058v-5.806l-7.57 2.645v20.654l21.314-8.6V37.732l-8.011 2.866v5.807zm-6.836 14.847l-.882.368v-4.63l.882-.295v4.557zm1.544-.588l-.882.368V56.4l.882-.295v4.557zm3.087-1.25l-.882.295V55.15l.882-.294v4.557zm1.543-.66l-.882.367v-4.484l.882-.294v4.41zm3.087-5.66l.883-.294v4.336l-.883.368v-4.41zm-1.764.661l.882-.294v4.41l-.882.368v-4.484zm-.66-16.023l8.01-2.94L55.954 27l-7.129 2.499 21.315 8.085v.147zm-27.637-6.027l-8.747 3.087 22.197 8.085 8.38-3.013-21.83-8.159zM12 55.445h18.228V51.77H13.69L12 55.444zm3.014-6.468h15.214v-3.675H16.704l-1.69 3.675zm3.013-6.689v.294h12.201v-3.675H19.644l-1.617 3.381z" fill="#0B7572"/></svg>